<mxfile host="app.diagrams.net" modified="2023-02-09T10:34:33.009Z" agent="5.0 (Macintosh; Intel Mac OS X 10_15_7) AppleWebKit/605.1.15 (KHTML, like Gecko) Version/15.6 Safari/605.1.15" etag="XnUDPL7OwMlCDja1rK6c" version="20.8.13" type="github">
  <diagram name="PÃ¡gina-1" id="wSs0KNxWsI5xxVMPGmJ2">
    <mxGraphModel dx="1005" dy="649" grid="1" gridSize="10" guides="1" tooltips="1" connect="1" arrows="1" fold="1" page="1" pageScale="1" pageWidth="827" pageHeight="1169" math="0" shadow="0">
      <root>
        <mxCell id="0" />
        <mxCell id="1" parent="0" />
        <mxCell id="YRqxPCBz3Q_Zhds-nLKX-10" style="edgeStyle=orthogonalEdgeStyle;rounded=0;orthogonalLoop=1;jettySize=auto;html=1;exitX=1;exitY=0.75;exitDx=0;exitDy=0;entryX=0;entryY=0.75;entryDx=0;entryDy=0;" edge="1" parent="1" source="YRqxPCBz3Q_Zhds-nLKX-1" target="YRqxPCBz3Q_Zhds-nLKX-3">
          <mxGeometry relative="1" as="geometry" />
        </mxCell>
        <mxCell id="YRqxPCBz3Q_Zhds-nLKX-1" value="Active" style="rounded=0;whiteSpace=wrap;html=1;" vertex="1" parent="1">
          <mxGeometry x="230" y="300" width="120" height="60" as="geometry" />
        </mxCell>
        <mxCell id="YRqxPCBz3Q_Zhds-nLKX-9" style="edgeStyle=orthogonalEdgeStyle;rounded=0;orthogonalLoop=1;jettySize=auto;html=1;exitX=0.25;exitY=0;exitDx=0;exitDy=0;entryX=0.25;entryY=1;entryDx=0;entryDy=0;" edge="1" parent="1" source="YRqxPCBz3Q_Zhds-nLKX-2" target="YRqxPCBz3Q_Zhds-nLKX-1">
          <mxGeometry relative="1" as="geometry" />
        </mxCell>
        <mxCell id="YRqxPCBz3Q_Zhds-nLKX-11" style="edgeStyle=orthogonalEdgeStyle;rounded=0;orthogonalLoop=1;jettySize=auto;html=1;exitX=1;exitY=0.75;exitDx=0;exitDy=0;entryX=0.5;entryY=1;entryDx=0;entryDy=0;" edge="1" parent="1" source="YRqxPCBz3Q_Zhds-nLKX-2" target="YRqxPCBz3Q_Zhds-nLKX-3">
          <mxGeometry relative="1" as="geometry" />
        </mxCell>
        <mxCell id="YRqxPCBz3Q_Zhds-nLKX-2" value="Suspended" style="rounded=0;whiteSpace=wrap;html=1;" vertex="1" parent="1">
          <mxGeometry x="230" y="500" width="120" height="60" as="geometry" />
        </mxCell>
        <mxCell id="YRqxPCBz3Q_Zhds-nLKX-3" value="Finished" style="rounded=0;whiteSpace=wrap;html=1;" vertex="1" parent="1">
          <mxGeometry x="520" y="300" width="120" height="60" as="geometry" />
        </mxCell>
        <mxCell id="YRqxPCBz3Q_Zhds-nLKX-4" value="None" style="rounded=0;whiteSpace=wrap;html=1;" vertex="1" parent="1">
          <mxGeometry x="230" y="140" width="120" height="60" as="geometry" />
        </mxCell>
        <mxCell id="YRqxPCBz3Q_Zhds-nLKX-5" value="" style="endArrow=classic;html=1;rounded=0;exitX=1;exitY=0.25;exitDx=0;exitDy=0;entryX=0;entryY=0.25;entryDx=0;entryDy=0;" edge="1" parent="1" source="YRqxPCBz3Q_Zhds-nLKX-1" target="YRqxPCBz3Q_Zhds-nLKX-3">
          <mxGeometry width="50" height="50" relative="1" as="geometry">
            <mxPoint x="390" y="360" as="sourcePoint" />
            <mxPoint x="440" y="310" as="targetPoint" />
          </mxGeometry>
        </mxCell>
        <mxCell id="YRqxPCBz3Q_Zhds-nLKX-6" value="" style="endArrow=classic;html=1;rounded=0;exitX=0.5;exitY=1;exitDx=0;exitDy=0;entryX=0.5;entryY=0;entryDx=0;entryDy=0;" edge="1" parent="1" source="YRqxPCBz3Q_Zhds-nLKX-4" target="YRqxPCBz3Q_Zhds-nLKX-1">
          <mxGeometry width="50" height="50" relative="1" as="geometry">
            <mxPoint x="390" y="360" as="sourcePoint" />
            <mxPoint x="440" y="310" as="targetPoint" />
          </mxGeometry>
        </mxCell>
        <mxCell id="YRqxPCBz3Q_Zhds-nLKX-7" value="" style="endArrow=classic;html=1;rounded=0;entryX=1;entryY=0.25;entryDx=0;entryDy=0;exitX=0.5;exitY=0;exitDx=0;exitDy=0;" edge="1" parent="1" source="YRqxPCBz3Q_Zhds-nLKX-3" target="YRqxPCBz3Q_Zhds-nLKX-4">
          <mxGeometry width="50" height="50" relative="1" as="geometry">
            <mxPoint x="390" y="360" as="sourcePoint" />
            <mxPoint x="440" y="310" as="targetPoint" />
            <Array as="points">
              <mxPoint x="580" y="155" />
            </Array>
          </mxGeometry>
        </mxCell>
        <mxCell id="YRqxPCBz3Q_Zhds-nLKX-8" value="" style="endArrow=classic;html=1;rounded=0;exitX=0.75;exitY=1;exitDx=0;exitDy=0;entryX=0.75;entryY=0;entryDx=0;entryDy=0;" edge="1" parent="1" source="YRqxPCBz3Q_Zhds-nLKX-1" target="YRqxPCBz3Q_Zhds-nLKX-2">
          <mxGeometry width="50" height="50" relative="1" as="geometry">
            <mxPoint x="390" y="360" as="sourcePoint" />
            <mxPoint x="440" y="310" as="targetPoint" />
          </mxGeometry>
        </mxCell>
        <mxCell id="YRqxPCBz3Q_Zhds-nLKX-12" value="" style="ellipse;html=1;shape=startState;fillColor=#000000;strokeColor=#000000;" vertex="1" parent="1">
          <mxGeometry x="275" y="80" width="30" height="30" as="geometry" />
        </mxCell>
        <mxCell id="YRqxPCBz3Q_Zhds-nLKX-13" value="" style="edgeStyle=orthogonalEdgeStyle;html=1;verticalAlign=bottom;endArrow=open;endSize=8;strokeColor=#000000;rounded=0;entryX=0.5;entryY=0;entryDx=0;entryDy=0;" edge="1" source="YRqxPCBz3Q_Zhds-nLKX-12" parent="1" target="YRqxPCBz3Q_Zhds-nLKX-4">
          <mxGeometry relative="1" as="geometry">
            <mxPoint x="290" y="150" as="targetPoint" />
          </mxGeometry>
        </mxCell>
      </root>
    </mxGraphModel>
  </diagram>
</mxfile>
